<svg width="640" height="200" viewBox="0 0 640 200" xmlns="http://www.w3.org/2000/svg">
  <defs>
    <linearGradient id="pinGradient" x1="0" y1="0" x2="0" y2="1">
      <stop offset="0%" stop-color="#00A2FF"/>
      <stop offset="100%" stop-color="#00C58E"/>
    </linearGradient>
  </defs>

  <!-- icon on the left -->
  <g transform="translate(20,20) scale(0.7)">
    <path d="M128 4C72 4 28 48 28 104c0 68 74 152 98 176 2 2 4 3 6 3s4-1 6-3c24-24 98-108 98-176C236 48 184 4 128 4z"
          fill="url(#pinGradient)"/>
    <circle cx="128" cy="88" r="52" fill="#F3FEFF"/>
    <rect x="74" y="132" width="108" height="92" rx="12" fill="#182638"/>
    <rect x="74" y="132" width="108" height="30" rx="12" fill="#1496FF"/>
    <circle cx="96" cy="146" r="6" fill="#F3FEFF"/>
    <circle cx="160" cy="146" r="6" fill="#F3FEFF"/>
    <path d="M104 188l24 24 40-44" fill="none" stroke="#1FD16F" stroke-width="12" stroke-linecap="round" stroke-linejoin="round"/>
  </g>

  <!-- texts -->
  <text x="220" y="90" font-family="system-ui, -apple-system, BlinkMacSystemFont, 'Segoe UI', sans-serif"
        font-size="40" font-weight="600" fill="#1F2933">
    南投場地借用系統
  </text>
  <text x="222" y="122" font-family="system-ui, -apple-system, BlinkMacSystemFont, 'Segoe UI', sans-serif"
        font-size="18" fill="#6B7A8A">
    Nantou Venue Booking
  </text>

  <!-- underline bar -->
  <rect x="222" y="136" width="260" height="6" rx="3" fill="#00B488"/>
</svg>
